inDegrees=yes
name=ik_OwnShooting_orientations2.mot
DataType=double
version=3
OpenSimVersion=4.3-2021-08-27-4bc7ad9
endheader
time	pelvis_tilt	pelvis_list	pelvis_rotation	pelvis_tx	pelvis_ty	pelvis_tz	hip_flexion_r	hip_adduction_r	hip_rotation_r	knee_angle_r	knee_angle_r_beta	ankle_angle_r	subtalar_angle_r	mtp_angle_r	hip_flexion_l	hip_adduction_l	hip_rotation_l	knee_angle_l	knee_angle_l_beta	ankle_angle_l	subtalar_angle_l	mtp_angle_l	lumbar_extension	lumbar_bending	lumbar_rotation	arm_flex_r	arm_add_r	arm_rot_r	elbow_flex_r	pro_sup_r	wrist_flex_r	wrist_dev_r	arm_flex_l	arm_add_l	arm_rot_l	elbow_flex_l	pro_sup_l	wrist_flex_l	wrist_dev_l
7.28	8.098050284033112	8.135593820621068	63.06081319322476	0	0.9399999999999999	0	45.00000012655331	-9.999999988573334	0	60.0001406249528	1.047200005565035	-4.999999851047217	0	0	45.00000012655331	-9.999999988573334	0	60.0001406249528	1.047200005565035	-4.999999851047217	0	0	-7.951784585161129	1.321881193111223	-0.4883454157923536	55.92312582097742	-5.105515339536177	56.93752433232705	149.9689190400166	45.00000025534056	0	0	0	-15.00002723541297	0	75.0001758377814	45.00000025534056	0	0
7.29	8.092997010883664	8.127467612110753	63.05074452321499	0	0.9399999999999999	0	45.00000012648558	-9.999999988573334	0	60.00014062490705	1.047200005564236	-4.999999851047217	0	0	45.00000012648558	-9.999999988573334	0	60.00014062490705	1.047200005564236	-4.999999851047217	0	0	-7.946249345175278	1.334893403549677	-0.4559676356072542	72.64776995286219	7.679338794355969	56.3078331053016	149.9958195981289	45.00000025534056	0	0	0	-15.00002709279875	0	75.00017583785507	45.00000025534056	0	0
7.3	8.104910816433103	8.131400278096732	63.0313781538702	0	0.9399999999999999	0	45.00000012640496	-9.999999988573334	0	60.00014062485275	1.047200005563288	-4.999999851047217	0	0	45.00000012640496	-9.999999988573334	0	60.00014062485275	1.047200005563288	-4.999999851047217	0	0	-7.938127094966456	1.335377195725135	-0.4621098374865161	64.5529112277197	4.142802051397672	61.42646083262725	149.9931847668419	45.00000025534056	0	0	0	-15.00002692305358	0	75.00017583794273	45.00000025534056	0	0
7.31	8.106801776237383	8.14528503965958	62.99944411653406	0	0.9399999999999999	0	45.00000012526409	-9.999999988573334	0	60.00014062407356	1.047200005549689	-4.999999851047217	0	0	45.00000012526409	-9.999999988573334	0	60.00014062407356	1.047200005549689	-4.999999851047217	0	0	-7.955476213696282	1.315938090028094	-0.4422820032141201	29.17161191560086	40.02244379399478	47.24798973795778	85.92286332160305	45.00000025534055	0	0	0	-15.00002446993422	0	75.00017583918357	45.00000025534055	0	0
7.32	8.113077639883816	8.128041489027243	63.01214297372784	0	0.9399999999999999	0	45.00000012483899	-9.999999988573334	0	60.00014062378263	1.047200005544611	-4.999999851047217	0	0	45.00000012483899	-9.999999988573334	0	60.00014062378263	1.047200005544611	-4.999999851047217	0	0	-7.938953623724066	1.352291015866231	-0.4353806272141117	49.08563077374528	56.01840931661864	-4.639250187803886	24.67752889668443	45.00000025534055	0	0	0	-15.00002349755099	0	75.00017583964593	45.00000025534055	0	0
7.33	8.107002105801069	8.095909463662464	63.01866224950965	0	0.9399999999999999	0	45.0000001245638	-9.999999988573334	0	60.00014062359375	1.047200005541315	-4.999999851047217	0	0	45.0000001245638	-9.999999988573334	0	60.00014062359375	1.047200005541315	-4.999999851047217	0	0	-7.914957097132326	1.365762653260633	-0.4718686336164064	54.00216701246137	25.31806992589661	-26.84569123334619	9.393280330896889	45.00000025534055	0	0	0	-15.00002286127651	0	75.00017583994529	45.00000025534055	0	0
7.34	8.101021712929629	8.078079446261308	63.01559387875668	0	0.9399999999999999	0	45.00000012443007	-9.999999988573334	0	60.00014062350245	1.047200005539721	-4.999999851047217	0	0	45.00000012443007	-9.999999988573334	0	60.00014062350245	1.047200005539721	-4.999999851047217	0	0	-7.887318973747782	1.370969085757487	-0.4619198314720723	47.04353784259751	-6.981169282132176	-34.4776500194203	3.101425263829241	45.00000025534055	0	0	0	-15.00002254121531	0	75.0001758400908	45.00000025534055	0	0
7.35	8.096946381811952	8.079836909574327	63.00938545295587	0	0.9399999999999999	0	45.00000012439173	-9.999999988573334	0	60.00014062347643	1.047200005539267	-4.999999851047217	0	0	45.00000012439173	-9.999999988573334	0	60.00014062347643	1.047200005539267	-4.999999851047217	0	0	-7.907415498657727	1.374822712978161	-0.4660197091434638	49.31788628513716	0.404812833569234	-32.26211062918252	8.298102051913547	45.00000025534055	0	0	0	-15.00002244825123	0	75.00017584013254	45.00000025534055	0	0
7.36	8.110723480009051	8.094595111880521	63.02488481152361	0	0.9399999999999999	0	45.00000012434008	-9.999999988573334	0	60.00014062344136	1.047200005538655	-4.999999851047217	0	0	45.00000012434008	-9.999999988573334	0	60.00014062344136	1.047200005538655	-4.999999851047217	0	0	-7.893476718181375	1.386791296806824	-0.4856412812506203	52.96337361756663	26.01908234129242	-19.10772608447312	12.41978496090876	45.00000025534055	0	0	0	-15.00002232294596	0	75.00017584018867	45.00000025534055	0	0
7.37	8.124381472300895	8.10177376475988	63.01148070027668	0	0.9399999999999999	0	45.00000012428924	-9.999999988573334	0	60.00014062340682	1.047200005538052	-4.999999851047217	0	0	45.00000012428924	-9.999999988573334	0	60.00014062340682	1.047200005538052	-4.999999851047217	0	0	-7.921843210857221	1.397796169108649	-0.4626314259984373	51.81929130633938	43.60422705593559	-9.232505445541216	16.26877266493283	45.00000025534055	0	0	0	-15.00002219911254	0	75.00017584024401	45.00000025534055	0	0
7.38	8.134789587364693	8.100568233941377	63.00390372826487	0	0.9399999999999999	0	45.00000012424833	-9.999999988573334	0	60.00014062338028	1.047200005537589	-4.999999851047217	0	0	45.00000012424833	-9.999999988573334	0	60.00014062338028	1.047200005537589	-4.999999851047217	0	0	-7.893001268952368	1.420679514368107	-0.4636995925718662	50.68874841929808	54.2342786282188	-5.30166071856608	25.78046866371094	45.00000025534055	0	0	0	-15.00002210222892	0	75.00017584028852	45.00000025534055	0	0
7.39	8.154644188324562	8.121993292616816	62.99234405769607	0	0.9399999999999999	0	45.00000012415167	-9.999999988573334	0	60.00014062331783	1.047200005536499	-4.999999851047217	0	0	45.00000012415167	-9.999999988573334	0	60.00014062331783	1.047200005536499	-4.999999851047217	0	0	-7.906631626402012	1.436102676129777	-0.4322462375426074	27.16147792012279	45.68019455761991	47.58337514464023	79.24617091536058	45.00000025534055	0	0	0	-15.00002187380184	0	75.0001758403936	45.00000025534055	0	0
7.4	8.149303027602752	8.137119762583545	62.97177238606704	0	0.9399999999999999	0	45.00000012389741	-9.999999988573334	0	60.0001406231599	1.047200005533742	-4.999999851047217	0	0	45.00000012389741	-9.999999988573334	0	60.0001406231599	1.047200005533742	-4.999999851047217	0	0	-7.913578123542724	1.422835167363768	-0.4325350754865358	85.06952053750017	11.26003991298659	35.83435070580139	149.9972229881178	45.00000025534055	0	0	0	-15.00002127988162	0	75.00017584067014	45.00000025534055	0	0
7.41	8.149704066850557	8.16650650506357	62.98606019748537	0	0.9399999999999999	0	45.00000012370242	-9.999999988573334	0	60.00014062302635	1.047200005531412	-4.999999851047217	0	0	45.00000012370242	-9.999999988573334	0	60.00014062302635	1.047200005531412	-4.999999851047217	0	0	9.953277790724057	2.773123268002044	-1.101400827623765	89.99332590466607	5.119462975896513	-8.549286826269583	149.9987609653001	45.00000025534055	0	0	0	-15.00002079465291	0	75.00017584088219	45.00000025534055	0	0
7.42	8.172621007260194	8.198763898799184	62.98534097131497	0	0.9399999999999999	0	45.00000012361863	-9.999999988573334	0	60.00014062297479	1.047200005530512	-4.999999851047217	0	0	45.00000012361863	-9.999999988573334	0	60.00014062297479	1.047200005530512	-4.999999851047217	0	0	4.339240237833383	1.780564631947744	-0.8022577908190547	89.99034625842056	2.404919538113578	-16.74642628674986	149.9984620240899	45.00000025534055	0	0	0	-15.00002059292846	0	75.00017584097333	45.00000025534055	0	0
7.43	8.158057455969047	8.193557457857622	62.98137460002329	0	0.9399999999999999	0	45.0000001235571	-9.999999988573334	0	60.00014062293194	1.047200005529764	-4.999999851047217	0	0	45.0000001235571	-9.999999988573334	0	60.00014062293194	1.047200005529764	-4.999999851047217	0	0	-2.874035531404557	2.497461938049888	-0.6198471015442519	89.97668689761576	12.80670239884386	0.420228619611407	149.9979586513621	45.00000025534055	0	0	0	-15.00002043262036	0	75.00017584104025	45.00000025534055	0	0
7.44	8.168326635872761	8.201043628784058	62.99478975269224	0	0.9399999999999999	0	45.00000012350124	-9.999999988573334	0	60.00014062289404	1.047200005529102	-4.999999851047217	0	0	45.00000012350124	-9.999999988573334	0	60.00014062289404	1.047200005529102	-4.999999851047217	0	0	-8.013306714335387	1.394765962671644	-0.456316277878778	72.77757132096939	30.04568193104334	32.57786933982184	149.9964860245247	45.00000025534055	0	0	0	-15.00002028857282	0	75.00017584110101	45.00000025534055	0	0
7.45	8.178635884626246	8.213714098264974	62.98215246603012	0	0.9399999999999999	0	45.00000012266982	-9.999999988573334	0	60.00014062232287	1.047200005519134	-4.999999851047217	0	0	45.00000012266982	-9.999999988573334	0	60.00014062232287	1.047200005519134	-4.999999851047217	0	0	-7.985040326023777	1.952451863746744	-5.216975545657276	-7.405389066532062	89.89757548644423	47.60487205707677	19.59690130986105	45.00000025534055	0	0	0	-15.00001811562854	0	75.00017584200536	45.00000025534055	0	0
7.46	8.183124166172126	8.227926523000155	62.9737234102112	0	0.9399999999999999	0	45.00000012235733	-9.999999988573334	0	60.00014062210423	1.047200005515318	-4.999999851047217	0	0	45.00000012235733	-9.999999988573334	0	60.00014062210423	1.047200005515318	-4.999999851047217	0	0	-8.034361873519165	1.401672597448958	-0.4261469289161059	33.43250335324339	54.3167441297578	-20.59522725751203	0.004782141576059826	45.00000025534055	0	0	0	-15.00001723348363	0	75.00017584234529	45.00000025534055	0	0
7.47	8.191345101946256	8.248160882582123	62.96502644553003	0	0.9399999999999999	0	45.00000012210566	-9.999999988573334	0	60.00014062192829	1.047200005512247	-4.999999851047217	0	0	45.00000012210566	-9.999999988573334	0	60.00014062192829	1.047200005512247	-4.999999851047217	0	0	-8.044297737314972	1.39715823486364	-0.4472919005398611	4.594246892204401	13.4697281176362	-14.86677863491293	0.002460375166803103	45.00000025534055	0	0	0	-15.00001650432852	0	75.00017584261906	45.00000025534055	0	0
